<svg width="1100" height="924" viewBox="0 0 1100 924" fill="none" xmlns="http://www.w3.org/2000/svg">
    <path d="M904.612 665.583C904.045 734.437 887.076 799.095 857.662 855.442C857.662 855.442 673.842 853.926 529.891 852.739C384.854 851.543 190.295 849.939 190.295 849.939C162.704 793.798 147.01 727.046 147.569 659.341C149.392 438.239 320.34 260.398 529.391 262.121C738.443 263.845 906.435 444.481 904.612 665.583Z" fill="#77DDD3" fill-opacity="0.2078"/>
    <path d="M381.565 227.431C374.997 220.863 368.636 217.106 362.924 213.732C361.13 212.673 359.401 211.651 357.749 210.592C354.286 208.373 351.154 205.986 348.441 202.737C345.728 199.489 343.421 195.366 341.632 189.661C334.368 166.504 348.274 144.99 367.614 138.923C386.929 132.864 409.326 144.026 416.295 166.241C419.708 177.122 417.591 184.459 414.264 192.117C413.685 193.45 413.068 194.795 412.436 196.171C409.438 202.706 406.121 209.936 405.01 219.966C404.936 220.629 404.484 221.195 403.861 221.391L383.241 227.859C382.657 228.042 382.006 227.873 381.565 227.431Z" fill="#FBF9ED" stroke="#0B5243" stroke-width="0.75" stroke-linejoin="round"/>
    <path d="M380.102 180.479C372.533 182.854 361.927 174.814 364.93 184.387C366.321 188.821 375.029 195.045 379.438 202.837C384.548 211.868 388.755 224.832 388.755 224.832L397.702 222.026C397.702 222.026 393.375 209.004 392.521 198.733C391.769 189.694 395.506 179.515 394.158 175.219C391.28 166.042 387.672 178.105 380.102 180.479Z" fill="#FDD500"/>
    <rect x="382.656" y="230.125" width="24.1837" height="4.83673" rx="1" transform="rotate(-17.4154 382.656 230.125)" fill="#0B5243"/>
    <rect x="384.586" y="236.278" width="24.1837" height="4.83673" rx="1" transform="rotate(-17.4154 384.586 236.278)" fill="#0B5243"/>
    <rect x="386.516" y="242.431" width="24.1837" height="4.83673" rx="1" transform="rotate(-17.4154 386.516 242.431)" fill="#0B5243"/>
    <path d="M329.478 84.4345L351.447 128.975" stroke="black" stroke-width="2.30588" stroke-linecap="round" stroke-linejoin="round"/>
    <path d="M285.487 133.375L327.511 157.235" stroke="black" stroke-width="2.30588" stroke-linecap="round" stroke-linejoin="round"/>
    <path d="M387.179 75.4307L384.603 124.223" stroke="black" stroke-width="2.30588" stroke-linecap="round" stroke-linejoin="round"/>
    <path d="M485.715 442.516C488.183 440.513 506.361 433.94 540.618 433.94C574.874 433.94 589.387 442.272 589.387 442.272C589.387 442.272 596.864 446.084 582.473 471.397C568.081 496.71 551.759 515.378 551.759 515.378L547.166 523.466L542.01 512.519L485.861 460.524C485.861 460.524 482.294 451.703 482.905 448.698C483.516 445.693 483.247 444.52 485.715 442.516Z" fill="#1B8087"/>
    <path d="M629.19 327.164C629.19 327.164 634.908 289.438 632.489 274.778C631.878 271.088 638.646 268.987 638.866 265.395C639.33 257.796 648.444 260.68 647.686 254.986C644.315 229.478 586.968 198.813 569.889 193.218C552.81 187.622 512.347 193.731 503.453 199.228C494.56 204.726 486.936 219.118 486.936 219.118C486.936 219.118 476.234 219.924 467.805 223.613C459.375 227.303 450.163 254.009 446.791 272.774C443.42 291.539 456.174 327.873 456.174 327.873C456.174 327.873 464.384 359.27 549.34 364.181C634.297 369.092 629.166 327.164 629.166 327.164H629.19Z" fill="#031001"/>
    <path d="M739.167 709.211C739.167 709.211 734.133 758.152 702.345 758.152C670.557 758.152 667.453 756.344 667.453 756.344L665.621 751.262V823.39H563.658L430.909 822.95L430.152 841.936C430.152 841.936 352.208 826.371 331.488 820.996C311.404 815.816 306.175 775.329 308.52 736.235C310.866 697.141 348.641 549.609 374.321 520.753C400.392 502.232 439.559 485.812 469.979 475.062L602.728 473.278C602.728 473.278 669.457 505.677 683.629 518.432C697.507 530.917 741.854 706.548 739.142 709.211H739.167Z" fill="#7DDCE3"/>
    <path d="M584.403 419.206V445.277C584.403 454.171 588.117 465.386 588.117 465.386L589.412 468.587L579.149 487.914C579.149 487.914 558.943 510.76 555.4 511.762C551.857 512.764 547.165 523.466 547.165 523.466C547.165 523.466 546.701 521.144 543.403 515.305C541.766 512.397 539.689 513.765 534.093 510.003C522.487 502.184 496.05 469.271 496.05 469.271L491.798 461.55C497.1 444.373 495.928 414.54 495.928 414.54L584.378 419.231L584.403 419.206Z" fill="#E8B98E"/>
    <path d="M479.63 382.409C479.63 382.409 475.257 383.459 468.733 380.552C462.209 377.644 462.673 371.609 458.813 362.397C454.952 353.21 447.207 337.23 452.289 329.387C457.371 321.544 471.225 325.893 471.225 325.893L479.655 382.384L479.63 382.409Z" fill="#F7CBA4"/>
    <path d="M609.692 374.273C609.692 374.273 612.111 376.35 617.022 374.273C621.933 372.196 623.13 364.573 625.794 357.316C628.457 350.059 634.566 330.219 629.434 325.063C624.279 319.908 619.099 328.069 619.099 328.069L609.692 374.249V374.273Z" fill="#F7CBA4"/>
    <path d="M590.78 447.721C591.831 455.858 579.858 482.124 552.688 511.884C548.925 514.865 546.995 524.639 546.995 524.639C549.927 519.41 552.883 513.986 555.278 513.668C563.561 513.668 576.706 554.35 583.841 555.328C590.976 556.305 603.754 474.525 602.753 471.349C601.751 468.172 594.47 446.573 592.173 444.276C591.171 443.274 589.412 442.272 589.412 442.272C589.412 442.272 590.243 443.348 590.78 447.721Z" fill="#1B8087"/>
    <path d="M399.585 531.822C399.585 531.822 421.087 541.913 431.178 584.941C441.269 627.969 431.178 655.164 431.178 655.164L398.388 740.609" stroke="#0B5243" stroke-width="0.75" stroke-linecap="round" stroke-linejoin="round"/>
    <path d="M333.663 732.472C333.663 732.472 378.303 719.522 440.487 763.919" stroke="#0B5243" stroke-width="0.75" stroke-linecap="round" stroke-linejoin="round"/>
    <path d="M691.911 622.153C691.911 622.153 683.408 655.261 665.621 673.049" stroke="#0B5243" stroke-width="0.75" stroke-linecap="round" stroke-linejoin="round"/>
    <path d="M684.435 537.808C681.454 583.426 676.469 627.48 665.621 667.063V823.39" stroke="#0B5243" stroke-width="0.75" stroke-linecap="round" stroke-linejoin="round"/>
    <path d="M536.83 508.34C542.181 513.423 545.529 517.21 546.701 521.119C549.096 528.938 551.27 574.825 549.096 599.821" stroke="#0B5243" stroke-width="0.75" stroke-linecap="round" stroke-linejoin="round"/>
    <path d="M484.248 443.909C480.241 449.553 470.297 471.275 470.297 475.771C470.297 480.267 499.397 557.746 504.944 558.968C510.49 560.19 532.554 514.938 540.74 515.549C543.329 515.549 545.651 516.184 545.651 516.184C543.256 508.366 532.237 501.06 513.96 482.759C495.659 464.458 488.842 459.938 485.886 455.198C483.613 451.533 482.538 448.894 484.248 443.909Z" fill="#1B8087"/>
    <path d="M619.099 328.093C619.099 328.093 608.299 388.86 600.871 404.4C593.443 419.94 572.161 433.721 566.102 438.216C560.042 442.712 530.355 439.438 524.369 434.918C518.383 430.398 491.237 416.983 483.809 397.412C476.381 377.816 470.297 322.229 470.297 322.229C480.217 313.921 491.823 285.065 502.647 265.982C535.437 256.331 568.985 258.701 595.374 268.181C601.629 272.482 611.598 290.221 619.099 328.093Z" fill="#FFD9B3"/>
    <path d="M565.637 311.575C567.934 309.278 576.266 304.221 583.816 303.072C591.366 301.924 599.356 309.425 596.033 310.915C592.71 312.406 590.804 308.423 583.816 309.572C576.828 310.72 566.957 315.509 564.807 316.242C562.657 316.975 563.341 313.872 565.637 311.575Z" fill="black"/>
    <path d="M498.811 310.598C501.303 308.496 503.991 306.395 511.639 306.395C519.287 306.395 534.68 313.53 531.015 315.973C527.961 318.001 517.503 311.697 510.442 312.284C503.38 312.87 499.764 315.191 497.565 315.753C495.366 316.315 496.343 312.699 498.836 310.573L498.811 310.598Z" fill="black"/>
    <path d="M561.923 354.871C561.923 354.871 566.15 365.475 563.072 368.554C559.993 371.633 554.104 374.272 554.104 374.272" stroke="#E2AD86" stroke-width="0.75" stroke-linecap="round" stroke-linejoin="round"/>
    <path d="M530.306 354.871C530.306 354.871 521.828 370.875 532.75 372.512" stroke="#E2AD86" stroke-width="0.75" stroke-linecap="round" stroke-linejoin="round"/>
    <path d="M536.048 370.192C536.048 370.192 540.519 369.386 545.406 374.273" stroke="#E2AD86" stroke-width="0.75" stroke-linecap="round" stroke-linejoin="round"/>
    <path d="M564.611 338.428C564.611 338.428 568.179 329.828 578.026 326.114C587.872 322.4 594.86 329.803 594.86 329.803C594.86 329.803 590.023 338.135 580.151 339.943C570.28 341.751 564.611 338.404 564.611 338.404V338.428Z" fill="white"/>
    <path d="M564.611 338.379C562.925 339.234 566.468 328.654 578.147 324.989C589.827 321.324 596.204 329.461 595.3 330.34C594.396 331.22 589.021 323.939 578.563 327.066C569.327 329.509 566.321 337.524 564.611 338.379Z" fill="black"/>
    <path d="M572.796 340.504C572.796 340.504 570.744 330.315 577.683 328.116C584.622 325.917 586.504 330.755 586.919 332.27C587.334 333.785 586.919 337.743 586.919 337.743C582.619 339.356 578.294 340.968 572.821 340.504H572.796Z" fill="black"/>
    <path d="M496.27 334.763C496.27 334.763 505.482 324.794 515.939 325.893C526.397 326.993 532.09 334.396 532.09 334.396C532.09 334.396 526.641 342.142 514.669 341.238C502.696 340.334 496.27 334.738 496.27 334.738V334.763Z" fill="white"/>
    <path d="M496.27 334.665C494.584 335.521 499.495 325.918 511.639 324.232C524.442 322.448 534.216 333.81 533.312 334.714C532.408 335.618 522.756 325.747 511.126 327.58C501.181 329.388 497.931 333.81 496.246 334.665H496.27Z" fill="black"/>
    <path d="M524.344 340.138C524.344 340.138 525.151 328.801 515.206 328.801C505.262 328.801 506.141 339.698 506.141 339.698C506.141 339.698 509.171 341.995 514.546 341.995C519.922 341.995 524.344 340.114 524.344 340.114V340.138Z" fill="black"/>
    <path d="M530.697 339.235C529.084 340.847 523.416 346.198 514.18 345.514C506.996 344.977 500.814 342.338 499.031 341.336C497.174 340.285 496.807 341.189 497.394 341.996C498.371 343.315 506.898 347.835 514.155 347.835C521.412 347.835 529.475 344.219 531.112 341.336C532.749 338.453 532.31 337.622 530.697 339.235Z" fill="#F4BD98"/>
    <path d="M593.565 336.987C592.295 338.697 587.75 344.366 579.736 344.219C573.505 344.097 568.008 341.849 566.395 340.945C564.709 339.992 564.465 340.945 565.027 341.702C565.955 342.973 573.603 346.956 579.882 346.54C586.162 346.125 592.857 342.044 594.054 339.064C595.251 336.083 594.836 335.301 593.541 336.987H593.565Z" fill="#F4BD98"/>
    <path d="M521.559 395.236C521.559 395.236 536.024 391.742 539.738 393.843C543.452 395.945 545.919 397.631 547.899 397.142C549.878 396.653 553.03 393.184 556.304 393.184C559.578 393.184 567.617 398.29 570.769 398.29C573.921 398.29 561.215 410.532 548.143 409.481C535.071 408.43 522.952 397.606 521.559 395.261V395.236Z" fill="white"/>
    <path d="M527.154 396.165C527.154 396.165 535.633 401.345 547.214 401.345C558.796 401.345 566.762 397.118 566.762 397.118L570.744 398.266C570.744 398.266 563.756 408.577 546.775 407.405C529.793 406.232 523.074 396.165 523.074 396.165H527.154Z" fill="#F2EAE7"/>
    <path d="M521.046 397.119C523.684 398.096 533.947 395.751 538.149 396.532C542.352 397.314 543.085 400.246 548.167 400.246C553.249 400.246 553.64 397.29 557.55 396.532C561.459 395.775 568.96 401.395 572.528 399.269C576.095 397.143 576.364 394.113 573.798 395.311C571.233 396.508 569.302 396.386 567.617 395.262C563.732 392.672 559.016 388.42 556.353 388.42C552.516 388.42 551.148 392.476 548.167 392.476C545.186 392.476 542.767 388.42 538.956 388.42C536.219 388.42 531.137 391.084 526.812 393.087C525.102 393.894 521.827 393.991 520.142 392.892C518.456 391.792 518.382 396.166 521.046 397.143V397.119Z" fill="#E8A381"/>
    <path d="M525.273 397.117C525.273 397.117 538.565 404.521 546.97 404.521C555.375 404.521 568.936 398.925 568.936 398.925L572.528 399.267C572.528 399.267 562.412 413.61 546.53 412.779C530.648 411.949 521.046 397.117 521.046 397.117H525.273Z" fill="#E8A381"/>
    <path d="M505.759 821.433C508.85 802.618 504.264 786.2 495.515 784.762C486.767 783.325 477.169 797.413 474.078 816.228C470.986 835.044 475.572 851.462 484.321 852.899C493.07 854.336 502.668 840.249 505.759 821.433Z" fill="#0B5243"/>
    <path d="M563.439 708.479L568.399 697.386L707.916 721.478L782.928 661.786L810.953 672.243L722.552 728.148L700.342 731.129L563.439 708.479Z" fill="#F9F7EB"/>
    <path d="M705.79 867.225L683.091 870.426L595.129 859.381L541.668 850.805L547.874 790.771L556.939 707.403L699.022 731.299L721.574 728.147L815.84 670.41L799.152 817.453L705.79 867.225Z" fill="#7DDCE3"/>
    <path d="M707.354 866.859L721.574 728.148L699.022 731.3L691.057 800.863L683.091 870.426L707.354 866.859Z" fill="#1B8087"/>
    <path d="M462.356 837.342L484.688 839.052C484.688 839.052 498.054 853.151 514.595 856.987C531.137 860.823 575.655 860.408 579.956 856.987C584.256 853.566 584.672 846.627 584.672 846.627C584.672 846.627 588.63 846.798 589.705 845.063C590.78 843.328 590.878 837.293 590.438 836.145C589.998 834.996 589.118 834.361 589.118 834.361C589.118 834.361 591.073 833.457 591.733 832.113C592.393 830.769 592.393 824.905 592.393 822.364C592.393 819.823 588.239 818.675 588.239 818.675C588.239 818.675 592.124 819.53 592.393 818.088C592.661 816.647 592.979 811.955 592.393 809.512C591.806 807.069 589.729 805.163 586.919 803.159C584.11 801.156 551.686 787.521 545.504 785.298C539.322 783.075 533.507 782.146 525.542 782.146C517.576 782.146 485.861 797.075 485.861 797.075C485.861 797.075 482.294 793.337 474.646 792.653C470.859 792.31 461.696 793.41 461.696 793.41L462.405 837.366L462.356 837.342Z" fill="#FFD9B3"/>
    <path d="M551.539 809.366L588.214 818.675" stroke="#E2AD86" stroke-width="0.75" stroke-linecap="round" stroke-linejoin="round"/>
    <path d="M552.688 827.861L589.094 834.361" stroke="#E2AD86" stroke-width="0.75" stroke-linecap="round" stroke-linejoin="round"/>
    <path d="M552.688 844.99L584.672 846.627" stroke="#E2AD86" stroke-width="0.75" stroke-linecap="round" stroke-linejoin="round"/>
    <path d="M447.744 761.792C438.435 761.792 420.867 783.783 417.031 799.64C412.193 819.627 420.94 842.644 429.394 845.161C454.659 852.637 480.608 855.887 489.355 852.027C480.119 844.965 475.159 804.136 499.202 786.446C490.235 775.084 457.053 761.792 447.72 761.792H447.744Z" fill="#1B8087"/>
</svg>
