<svg width="1057" height="709" viewBox="0 0 1057 709" fill="none" xmlns="http://www.w3.org/2000/svg">    <path d="M811.704 444.631C811.202 505.514 796.223 562.687 770.26 612.511C770.26 612.511 608.004 611.173 480.941 610.126C352.919 609.07 181.185 607.654 181.185 607.654C156.832 558.013 142.98 498.988 143.474 439.121C145.086 243.615 295.981 86.3596 480.508 87.8811C665.034 89.4026 813.316 249.125 811.704 444.631Z" fill="#77DDD3" fill-opacity="0.2078"/>    <path d="M972.83 232.063H593.787C584.478 232.063 576.931 239.58 576.931 248.852V511.386C576.931 520.658 584.478 528.174 593.787 528.174H972.83C982.14 528.174 989.686 520.658 989.686 511.386V248.852C989.686 239.58 982.14 232.063 972.83 232.063Z" fill="black"/>    <path d="M968.899 232.063H589.856C580.547 232.063 573 239.58 573 248.852V511.386C573 520.658 580.547 528.174 589.856 528.174H968.899C978.209 528.174 985.756 520.658 985.756 511.386V248.852C985.756 239.58 978.209 232.063 968.899 232.063Z" fill="white" stroke="black" stroke-width="0.75" stroke-miterlimit="10"/>    <path d="M593.777 232.063H972.83C982.128 232.063 989.686 239.581 989.686 248.852V257.94H576.931V248.852C576.931 239.581 584.479 232.063 593.777 232.063Z" fill="black"/>    <path d="M589.856 232.063H968.908C978.207 232.063 985.765 239.581 985.765 248.852V257.94H573V248.852C573 239.581 580.558 232.063 589.856 232.063Z" fill="#C7F0EC" stroke="#77DDD3" stroke-width="0.75" stroke-miterlimit="10"/>    <path d="M593.375 250.899C596.327 250.899 598.721 248.515 598.721 245.574C598.721 242.634 596.327 240.25 593.375 240.25C590.422 240.25 588.028 242.634 588.028 245.574C588.028 248.515 590.422 250.899 593.375 250.899Z" fill="white" stroke="black" stroke-width="0.75" stroke-miterlimit="10"/>    <path d="M609.416 250.899C612.368 250.899 614.762 248.515 614.762 245.574C614.762 242.634 612.368 240.25 609.416 240.25C606.463 240.25 604.069 242.634 604.069 245.574C604.069 248.515 606.463 250.899 609.416 250.899Z" fill="white" stroke="black" stroke-width="0.75" stroke-miterlimit="10"/>    <path d="M625.457 250.899C628.409 250.899 630.803 248.515 630.803 245.574C630.803 242.634 628.409 240.25 625.457 240.25C622.504 240.25 620.11 242.634 620.11 245.574C620.11 248.515 622.504 250.899 625.457 250.899Z" fill="white" stroke="black" stroke-width="0.75" stroke-miterlimit="10"/>    <path d="M978.415 310.17C1021.82 310.17 1057 274.986 1057 231.585C1057 188.184 1021.82 153 978.415 153C935.014 153 899.83 188.184 899.83 231.585C899.83 274.986 935.014 310.17 978.415 310.17Z" fill="#1B8087"/>    <path d="M966.77 310.17C1010.17 310.17 1045.35 274.986 1045.35 231.585C1045.35 188.184 1010.17 153 966.77 153C923.368 153 888.185 188.184 888.185 231.585C888.185 274.986 923.368 310.17 966.77 310.17Z" fill="#AFEBE5" stroke="#0B5243" stroke-width="0.604262" stroke-miterlimit="10"/>    <path d="M955.051 170.465V215.798H920.201V243.798H955.051V289.797H983.199V243.798H1024.98V215.798H983.199V170.465H955.051Z" fill="#1B8087" stroke="#1B8087" stroke-width="0.75" stroke-linejoin="round"/>    <path d="M949.234 170.465V215.798H908.562V243.798H949.234V289.797H977.382V243.798H1019.16V215.798H977.382V170.465H949.234Z" fill="#FBF9ED" stroke="#1B8087" stroke-width="0.75" stroke-linejoin="round"/>    <path d="M877.896 314.701H711.686C701.872 314.701 693.917 322.629 693.917 332.408V476.77C693.917 486.549 701.872 494.476 711.686 494.476H877.896C887.71 494.476 895.665 486.549 895.665 476.77V332.408C895.665 322.629 887.71 314.701 877.896 314.701Z" fill="#1B8087"/>    <path d="M859.888 304.718H683.759C673.927 304.718 665.956 312.61 665.956 322.346V460.872C665.956 470.608 673.927 478.5 683.759 478.5H859.888C869.72 478.5 877.691 470.608 877.691 460.872V322.346C877.691 312.61 869.72 304.718 859.888 304.718Z" fill="white" stroke="black" stroke-width="0.75" stroke-miterlimit="10"/>    <path d="M853.92 354.657H691.722C686.317 354.657 681.935 358.95 681.935 364.245V438.952C681.935 444.247 686.317 448.54 691.722 448.54H853.92C859.325 448.54 863.707 444.247 863.707 438.952V364.245C863.707 358.95 859.325 354.657 853.92 354.657Z" fill="#77DDD3" fill-opacity="0.2"/>    <path d="M701.274 397.752C703.254 397.752 704.859 396.153 704.859 394.181C704.859 392.209 703.254 390.611 701.274 390.611C699.295 390.611 697.689 392.209 697.689 394.181C697.689 396.153 699.295 397.752 701.274 397.752Z" fill="white"/>    <path d="M701.274 414.543C703.254 414.543 704.859 412.944 704.859 410.972C704.859 409 703.254 407.402 701.274 407.402C699.295 407.402 697.689 409 697.689 410.972C697.689 412.944 699.295 414.543 701.274 414.543Z" fill="white"/>    <path d="M701.274 430.556C703.254 430.556 704.859 428.958 704.859 426.986C704.859 425.014 703.254 423.415 701.274 423.415C699.295 423.415 697.689 425.014 697.689 426.986C697.689 428.958 699.295 430.556 701.274 430.556Z" fill="white"/>    <path d="M731.288 366.64H704.488C700.857 366.64 697.913 369.77 697.913 373.631C697.913 377.492 700.857 380.622 704.488 380.622H731.288C734.919 380.622 737.863 377.492 737.863 373.631C737.863 369.77 734.919 366.64 731.288 366.64Z" fill="#1B8087"/>    <path d="M751.063 322.694H688.712C684.969 322.694 681.935 325.824 681.935 329.686C681.935 333.547 684.969 336.677 688.712 336.677H751.063C754.806 336.677 757.84 333.547 757.84 329.686C757.84 325.824 754.806 322.694 751.063 322.694Z" fill="#1B8087"/>    <path d="M846.127 390.611H713.501C711.513 390.611 709.901 392.399 709.901 394.606C709.901 396.812 711.513 398.601 713.501 398.601H846.127C848.115 398.601 849.726 396.812 849.726 394.606C849.726 392.399 848.115 390.611 846.127 390.611Z" fill="white"/>    <path d="M796.246 406.589H713.444C711.487 406.589 709.901 408.378 709.901 410.584C709.901 412.791 711.487 414.579 713.444 414.579H796.246C798.203 414.579 799.789 412.791 799.789 410.584C799.789 408.378 798.203 406.589 796.246 406.589Z" fill="white"/>    <path d="M796.246 422.568H713.444C711.487 422.568 709.901 424.356 709.901 426.563C709.901 428.769 711.487 430.558 713.444 430.558H796.246C798.203 430.558 799.789 428.769 799.789 426.563C799.789 424.356 798.203 422.568 796.246 422.568Z" fill="white"/>    <path d="M119.549 603.565H209.742" stroke="#031001" stroke-width="0.75" stroke-linecap="round" stroke-linejoin="round"/>    <path d="M111 618.359H232.628" stroke="#031001" stroke-width="0.75" stroke-linecap="round" stroke-linejoin="round"/>    <path d="M676.051 618.359H829.065" stroke="#031001" stroke-width="0.75" stroke-linecap="round" stroke-linejoin="round"/>    <path d="M460.93 330.591C460.93 330.591 523.259 354.143 533.212 367.002C543.165 379.862 601.453 509.254 601.453 509.254L551.935 520.096C547.18 521.148 543.509 524.454 542.45 528.619L539.469 540.663L509.044 490.512C508.428 496.244 507.368 501.568 505.57 506.292V511.659C505.57 511.659 503.772 556.7 506.753 603.566H400.744C400.744 603.566 400.375 601.226 397.911 599.079C395.447 596.933 362.583 588.689 360.292 588.689C358.001 588.689 340.731 593.691 331.295 610.136C322.279 625.851 326.27 641.394 326.27 641.394C309.739 641.394 219.448 619.561 213.191 610.071C206.933 600.582 199 574.004 200.799 553.244C202.597 532.483 229.82 389.824 248.223 373.786C266.626 357.749 348.861 324.967 348.861 324.967C348.861 324.967 411.682 337.74 427.72 336.13C443.758 334.52 460.979 330.591 460.979 330.591H460.93Z" fill="#7DDCE3" stroke="black" stroke-width="0.75" stroke-miterlimit="10" stroke-linecap="round"/>    <path d="M424.566 352.79C424.566 352.79 431.612 437.463 431.612 483.17C431.612 528.877 426.069 603.674 426.069 603.674" stroke="black" stroke-width="0.75" stroke-miterlimit="10" stroke-linecap="round"/>    <path d="M368.668 302.274C373.349 275.051 372.61 263.072 371.255 244.931L378.227 241.217C378.227 241.217 379.04 260.367 383.523 273.72C388.007 287.095 426.07 305.601 431.835 307.576C439.718 310.26 445.212 309.594 445.212 309.594C445.212 309.594 445.877 312.965 445.877 317.023C445.877 327.821 427.671 336.13 427.671 336.13C427.671 336.13 412.2 330.634 393.058 320.393C373.915 310.153 368.668 302.274 368.668 302.274Z" fill="#FFDDC5" stroke="black" stroke-width="0.75" stroke-miterlimit="10" stroke-linecap="round"/>    <path d="M504.634 617.521L547.698 608.547L705.762 616.812C710.763 617.07 711.65 623.167 706.871 624.52L504.511 681.326L348.22 656.057C344.55 655.456 344.426 650.926 348.048 650.175" fill="black"/>    <path d="M373.94 216.399C373.94 216.399 376.281 268.439 379.631 276.833C382.982 285.249 423.188 308.178 431.736 310.99C440.285 313.803 454.87 312.665 461.866 310.99C468.863 309.316 481.649 287.096 486.034 274.622C490.395 262.149 495.051 252.703 496.086 244.824C497.096 236.945 494.607 228.894 494.607 226.854C494.607 224.815 498.278 216.957 498.278 211.461C498.278 202.315 493.893 173.998 493.893 173.998C493.893 173.998 493.745 170.864 492.957 168.18C482.339 168.18 480.466 175.63 474.899 176.081C469.331 176.531 415.994 149.009 401.139 160.451C394.684 166.076 401.139 193.062 401.139 193.062L373.965 195.038V216.377L373.94 216.399Z" fill="#FFDDC5" stroke="black" stroke-width="0.75" stroke-miterlimit="10" stroke-linecap="round"/>    <path d="M454.82 209.593C453.514 208.455 451.691 206.523 444.374 204.591C437.058 202.659 429.051 201.628 422.892 202.659C416.733 203.689 405.499 208.799 407.618 209.722C409.589 210.581 412.988 207.146 422.966 205.858C430.874 204.827 435.259 206.244 442.28 208.691C449.77 211.268 452.48 216.549 454.943 215.755C457.407 214.96 456.126 210.752 454.82 209.615V209.593Z" fill="black"/>    <path d="M474.035 211.633C476.327 207.468 489.088 206.244 493.547 206.244C498.006 206.244 498.228 209.765 498.228 209.765L498.277 211.482C498.277 211.482 497.415 209.121 492.882 209.121C477.953 209.851 476.721 216.785 474.06 216.463C473.222 216.356 472.311 214.166 474.06 211.654L474.035 211.633Z" fill="black"/>    <path d="M473.716 224.299C474.553 224.514 474.529 220.07 479.554 217.751C484.802 215.325 493.548 217.687 493.843 217.064C493.966 216.807 484.334 214.08 478.323 217.515C473.543 220.241 473.272 224.17 473.74 224.299H473.716Z" fill="black"/>    <path d="M367.953 300.9C367.953 306.782 395.595 324.172 427.671 336.13C427.671 336.13 423.704 335.937 417.94 340.961C412.175 345.984 408.972 362.021 404.267 362.021C399.561 362.021 353.369 334.134 348.368 324.215C354.009 318.118 364.529 295.898 367.953 300.9Z" fill="#1B8087"/>    <path d="M444.842 310.905C449.252 322.842 439.348 329.798 427.695 336.109C427.695 336.109 434.495 335.379 438.511 338.879C442.526 342.378 449.917 358.029 452.873 358.029C455.83 358.029 457.874 340.124 461.323 329.325C459.796 323.808 445.975 309.789 444.842 310.905Z" fill="#1B8087"/>    <path d="M267.636 385.058C293.331 391.091 312.769 413.397 327.058 449.185C330.211 468.486 295.77 524.97 295.77 555.498" stroke="black" stroke-width="0.75" stroke-miterlimit="10" stroke-linecap="round"/>    <path d="M243.418 570.912C247.828 562.282 276.899 548.069 293.306 554.939C309.714 561.809 339.055 573.574 345.091 576.923C351.127 580.272 357.163 588.688 357.163 588.688" stroke="black" stroke-width="0.75" stroke-miterlimit="10" stroke-linecap="round"/>    <path d="M524.736 646.181C524.736 646.181 530.156 646.675 529.171 644.356C528.185 642.037 522.495 628.469 517.346 624.862C512.172 621.277 492.734 610.199 483.644 610.199C474.553 610.199 435.062 615.953 435.062 615.953L399.906 603.565C399.906 603.565 384.927 606.034 374.974 619.023C364.997 632.012 369.702 642.896 369.702 642.896C369.702 642.896 411.189 645.193 416.092 648.371C420.994 651.548 426.538 658.01 434.199 659.556C441.861 661.102 473.592 655.391 477.731 656.593C481.87 657.795 498.475 668.208 503.18 668.208C507.885 668.208 509.167 666.061 506.9 664.107C504.634 662.154 496.602 656.636 494.212 654.36C491.823 652.085 483.545 646.439 479.209 645.193C474.873 643.948 467.532 643.626 467.532 643.626C471.818 643.798 475.809 644.206 479.209 645.193C479.209 645.193 489.335 649.229 493.252 651.548C497.193 653.867 509.585 660.715 512.369 662.583C515.153 664.451 524.096 663.184 520.277 658.697C515.868 653.545 511.827 649.723 509.709 647.576C507.097 644.914 502.047 640.985 499.041 638.388C496.036 635.769 474.578 629.693 474.578 629.693C482.658 632.033 489.581 634.244 494.976 636.327C494.976 636.327 518.528 654.94 523.603 657.774C528.678 660.629 530.748 656.121 528.235 651.956C525.944 648.156 521.977 641.35 517.863 635.747C513.749 630.144 507.984 628.362 504.436 626.151C500.889 623.939 482.289 618.078 482.289 618.078C489.679 620.483 498.302 623.403 504.436 626.151C508.649 628.04 515.498 631.861 517.863 635.747C520.573 640.234 522.076 639.74 524.761 646.181H524.736Z" fill="#FFDDC5"/>    <path d="M479.209 645.193C483.545 646.439 491.823 652.085 494.212 654.36C496.602 656.636 504.634 662.154 506.9 664.107C509.167 666.061 507.885 668.208 503.18 668.208C498.475 668.208 481.87 657.795 477.731 656.593C473.592 655.391 441.861 661.102 434.199 659.556C426.538 658.01 420.994 651.548 416.092 648.371C411.189 645.193 369.702 642.896 369.702 642.896C369.702 642.896 364.997 632.012 374.974 619.023C384.927 606.034 399.906 603.565 399.906 603.565L435.062 615.953C435.062 615.953 474.553 610.199 483.644 610.199C492.734 610.199 512.172 621.277 517.346 624.862C522.495 628.469 528.185 642.037 529.171 644.356C530.156 646.675 524.736 646.181 524.736 646.181H524.761C522.076 639.74 520.573 640.234 517.863 635.747M479.209 645.193C474.873 643.948 467.532 643.626 467.532 643.626C471.818 643.798 475.809 644.206 479.209 645.193ZM479.209 645.193C479.209 645.193 489.335 649.229 493.252 651.548C497.193 653.867 509.585 660.715 512.369 662.583C515.153 664.451 524.096 663.184 520.277 658.697C515.868 653.545 511.827 649.723 509.709 647.576C507.097 644.914 502.047 640.985 499.041 638.388C496.036 635.769 474.578 629.693 474.578 629.693C482.658 632.033 489.581 634.244 494.976 636.327C494.976 636.327 518.528 654.94 523.603 657.774C528.678 660.629 530.748 656.121 528.235 651.956C525.944 648.156 521.977 641.35 517.863 635.747M517.863 635.747C513.749 630.144 507.984 628.362 504.436 626.151M517.863 635.747C515.498 631.861 508.649 628.04 504.436 626.151M504.436 626.151C500.889 623.939 482.289 618.078 482.289 618.078C489.679 620.483 498.302 623.403 504.436 626.151Z" stroke="black" stroke-width="0.75" stroke-miterlimit="10" stroke-linecap="round"/>    <path d="M529.294 390.124C523.899 428.853 511.063 453.929 511.063 453.929" stroke="black" stroke-width="0.75" stroke-miterlimit="10" stroke-linecap="round"/>    <path d="M441.738 434.371C441.738 431.516 511.704 428.961 511.704 433.04C511.704 437.119 510.127 489.138 507.959 498.735C505.792 508.331 498.401 519.345 494.952 520.418C491.503 521.492 461.422 522.844 457.949 520.418C454.475 517.992 438.831 508.331 440.285 497.468C443.167 468.228 441.738 437.227 441.738 434.35V434.371Z" fill="#1B8087"/>    <path d="M429.642 354.206C433.846 354.206 437.254 351.236 437.254 347.572C437.254 343.908 433.846 340.938 429.642 340.938C425.438 340.938 422.029 343.908 422.029 347.572C422.029 351.236 425.438 354.206 429.642 354.206Z" fill="#1B8087"/>    <path d="M442.009 445.535L483.841 453.93L511.088 445.535" stroke="white" stroke-linecap="round" stroke-linejoin="round"/>    <path d="M400.719 603.565H523.825" stroke="#031001" stroke-width="0.75" stroke-linecap="round" stroke-linejoin="round"/>    <path d="M734.685 603.565H803.69" stroke="#031001" stroke-width="0.75" stroke-linecap="round" stroke-linejoin="round"/>    <path d="M417.151 218.073C417.151 218.073 429.297 215.282 436.343 216.892C443.389 218.503 446.148 224.321 446.148 224.321C446.148 224.321 440.827 227.605 433.657 226.532C426.488 225.48 422.818 222.539 420.748 220.714C418.679 218.889 417.151 218.052 417.151 218.052V218.073Z" fill="white"/>    <path d="M447.503 225.823C448.291 224.836 444.842 218.674 440.531 216.807C436.638 215.111 428.656 215.39 424.493 215.776C420.329 216.163 411.83 217.73 411.83 218.395C411.83 219.061 418.925 217.923 424.936 217.622C430.948 217.322 436.047 217.622 439.866 219.318C443.684 221.014 446.567 226.983 447.503 225.823Z" fill="black"/>    <path d="M440.852 220.392C440.852 221.702 440.852 223.484 439.546 224.922C438.561 225.996 436.664 226.747 434.348 226.661C431.86 226.575 429.519 225.287 428.829 223.913C427.868 221.96 428.558 218.052 431.244 216.957C433.855 215.884 440.852 217.301 440.852 220.392Z" fill="black"/>    <path d="M446.369 224.32C445.901 223.376 442.255 226.489 434.076 225.974C425.896 225.458 417.717 217.687 416.929 218.073C416.584 218.223 424.394 226.682 434.174 227.176C443.955 227.67 446.689 224.943 446.394 224.32H446.369Z" fill="black"/>    <path d="M482.191 219.061C478.422 220.049 475.515 225.48 475.515 225.48C475.515 225.48 481.082 229.237 487.192 227.133C493.302 225.029 495.347 219.254 495.347 219.254C495.347 219.254 488.301 217.472 482.191 219.061Z" fill="white"/>    <path d="M474.061 227.004C473.469 226.102 476.5 220.134 479.949 218.846C484.679 217.064 487.98 217.557 491.059 217.922C494.139 218.287 497.292 218.824 496.8 219.253C496.11 219.855 495.174 219.876 490.714 219.597C486.255 219.318 483.841 219.103 480.959 220.563C477.362 222.366 474.726 228.056 474.036 227.025L474.061 227.004Z" fill="black"/>    <path d="M478.963 222.089C478.963 223.269 478.963 224.879 479.924 226.189C480.638 227.155 482.043 227.842 483.767 227.756C485.59 227.67 487.339 226.533 487.832 225.266C488.547 223.505 488.029 219.963 486.058 218.976C484.087 217.988 478.938 219.276 478.938 222.089H478.963Z" fill="black"/>    <path d="M474.898 225.631C475.243 224.772 477.928 227.477 483.989 227.134C491.774 226.661 494.558 218.911 495.149 219.254C495.395 219.405 493.843 227.756 483.915 228.228C476.672 228.55 474.676 226.21 474.898 225.652V225.631Z" fill="black"/>    <path d="M437.476 272.517C437.476 272.517 446.468 282.178 461.521 281.534C475.76 280.933 476.228 274.492 476.228 274.492C470.439 273.741 467.187 276.231 463.664 276.231C460.141 276.231 455.411 273.741 437.451 272.539L437.476 272.517Z" fill="#EAA583" stroke="black" stroke-width="0.75" stroke-linecap="round" stroke-linejoin="round"/>    <path d="M439.644 272.369C439.644 272.369 452.947 270.329 457.48 270.608C459.747 270.909 462.875 272.948 463.664 272.948C464.452 272.948 466.3 270.887 469.305 270.608C472.311 270.329 476.228 274.043 476.228 274.043L464.033 276.19L439.619 272.347L439.644 272.369Z" fill="#EAA583" stroke="black" stroke-width="0.75" stroke-linecap="round" stroke-linejoin="round"/>    <path d="M431.662 271.251C431.662 271.251 448.144 273.548 454.056 274.45C459.969 275.351 461.102 276.231 463.689 276.231C466.276 276.231 467.31 275.351 470.833 274.707C474.356 274.063 477.584 274.063 477.584 274.063" stroke="black" stroke-width="0.5" stroke-linecap="round" stroke-linejoin="round"/>    <path d="M459.057 105.706C422.497 94.0267 386.948 100.36 368.619 113.005C350.955 125.199 354.749 145.251 354.749 145.251C354.749 145.251 346.52 145.509 341.002 157.123C331.566 176.982 345.485 211.547 345.485 211.547L372.24 261.354L370.639 234.003L373.94 240.486C373.94 240.486 376.773 269.276 378.202 275.566C380.074 283.961 423.064 309.723 431.761 311.57C440.457 313.437 458.195 313.609 463.96 310.41C471.745 306.095 481.106 289.392 484.679 281.213C490.591 267.709 492.932 256.309 492.932 256.309C490.665 260.882 488.251 265.047 485.393 267.795C485.393 267.795 485.442 263.673 480.86 261.59C477.239 259.937 469.478 259.121 461.644 258.713C441.787 257.704 428.582 258.52 424.394 262.17C420.995 265.133 419.886 268.696 419.886 268.696C419.886 268.696 390.249 271.38 387.391 252.788C384.533 234.196 383.893 206.158 386.43 198.73C388.968 191.28 400.744 197.528 402.69 193.942C404.636 190.357 395.693 165.604 404.094 161.031C420.625 154.204 466.325 177.003 473.149 177.583C479.948 178.163 481.772 170.906 492.439 170.906L498.253 204.999L505.718 174.019C508.502 174.921 511.482 176.445 513.577 176.96C517.321 177.905 519.711 174.148 519.144 166.033C518.43 155.814 502.614 119.617 459.057 105.706ZM430.135 267.065C433.682 265.176 446.936 261.698 461.545 262.599C473.592 263.329 479.604 267.258 480.343 269.856C481.082 272.453 480.343 276.618 479.751 278.937C479.16 281.256 474.602 292.097 468.665 293.901C462.728 295.704 446.271 296.091 439.299 293.901C432.327 291.711 427.449 282.544 427.449 278.937C427.449 275.33 427.696 268.374 430.135 267.086V267.065Z" fill="black"/>    <path d="M372.437 205.256C372.437 205.256 366.795 195.638 358.567 195.638C350.339 195.638 345.485 204.591 345.485 213.286C345.485 220.177 348.811 224.965 353.172 232.243C357.532 239.521 358.715 243.385 363.125 245.618C367.559 247.872 374.211 243.342 374.211 243.342L372.437 205.256Z" fill="#FFDDC5" stroke="black" stroke-width="0.75" stroke-miterlimit="10" stroke-linecap="round"/>    <path d="M369.21 231.964C369.21 231.964 364.529 230.075 364.529 225.996C364.529 221.916 369.21 220.07 369.21 220.07C369.21 220.07 369.21 212.556 366.229 207.318C363.248 202.079 360.168 199.739 357.532 199.739C354.896 199.739 350.93 203.325 350.93 209.035" stroke="black" stroke-width="0.75" stroke-linecap="round" stroke-linejoin="round"/>    <path d="M360.095 222.367C360.095 222.367 361.992 216.742 368.89 215.819" stroke="black" stroke-width="0.75" stroke-linecap="round" stroke-linejoin="round"/>    <path d="M474.381 212.813C472.508 215.819 472.607 223.72 473.839 230.504C475.071 237.288 480.983 259.894 472.434 261.397C464.379 262.793 462.383 259.014 458.22 258.757C454.056 258.499 454.426 259.744 452.011 258.435C450.311 257.511 449.769 254.441 451.272 251.586C452.775 248.731 455.534 246.97 457.678 246.154" fill="#FFDDC5"/>    <path d="M474.381 212.813C472.508 215.819 472.607 223.72 473.839 230.504C475.071 237.288 480.983 259.894 472.434 261.397C464.379 262.793 462.383 259.014 458.22 258.757C454.056 258.499 454.426 259.744 452.011 258.435C450.311 257.511 449.769 254.441 451.272 251.586C452.775 248.731 455.534 246.97 457.678 246.154" stroke="black" stroke-width="0.75" stroke-miterlimit="10" stroke-linecap="round"/>    <path d="M481.747 618.078C481.747 618.078 500.347 623.917 503.895 626.15C507.442 628.383 515.203 633.428 517.321 635.746C519.44 638.065 525.402 648.155 527.693 651.955C530.206 656.12 528.137 660.607 523.062 657.773" stroke="black" stroke-width="0.75" stroke-linecap="round" stroke-linejoin="round"/>    <path d="M474.036 629.693C474.036 629.693 495.494 635.769 498.5 638.388C501.505 641.007 506.556 644.914 509.167 647.576C511.286 649.745 515.351 653.545 519.736 658.697" stroke="black" stroke-width="0.75" stroke-linecap="round" stroke-linejoin="round"/>    <path d="M467.482 643.155C467.482 643.155 474.947 643.52 479.16 644.722C479.16 644.722 481.845 645.602 485.565 647.255" stroke="black" stroke-width="0.75" stroke-linecap="round" stroke-linejoin="round"/>    <path d="M542.301 529.22L504.929 679.63C504.731 680.381 505.569 681.025 506.407 680.789L721.75 620.333C726.8 618.916 730.717 615.417 732.195 610.973L776.54 479.219C777.87 475.269 773.756 471.533 769.174 472.542L552.624 519.945C547.45 521.083 543.459 524.668 542.326 529.22H542.301Z" fill="black"/>    <path d="M360.267 588.688C357.163 588.688 338.218 595.472 330.285 610.973C321.145 628.856 324.668 639.204 326.811 642.725C328.955 646.246 369.653 654.146 374.679 653.395C379.705 652.644 384.435 643.97 384.435 643.97C384.435 643.97 375.763 649.939 372.412 647.019C369.062 644.099 365.465 635.018 373.669 621.042C381.897 607.087 400.719 603.394 400.719 603.394C400.719 603.394 400.842 601.505 398.453 599.423C395.201 596.589 363.396 588.688 360.267 588.688Z" fill="#1B8087"/>    <path d="M400.719 603.373C400.719 603.373 380.863 606.615 372.683 622.802C364.504 638.968 369.579 646.611 373.94 647.727C378.3 648.844 384.435 643.97 384.435 643.97L370.491 642.725C370.491 642.725 368.077 636.199 374.236 622.974C380.37 609.749 400.719 603.867 400.719 603.867V603.394V603.373Z" fill="black"/>    <path d="M672.615 573.547C677.615 564.868 676.414 555.535 669.933 552.699C663.452 549.863 654.145 554.6 649.145 563.278C644.145 571.956 645.346 581.29 651.827 584.126C658.308 586.962 667.615 582.225 672.615 573.547Z" fill="#1B8087"/></svg>