<svg width="173" height="183" viewBox="0 0 173 183" fill="none" xmlns="http://www.w3.org/2000/svg">
    <g clip-path="url(#clip0_3022_7246)">
        <path d="M86.2237 0C59.7703 0 38.3218 21.4486 38.3218 47.9019C38.3218 74.3553 59.7703 95.8039 86.2237 95.8039C112.677 95.8039 134.126 74.3553 134.126 47.9019C134.126 21.4486 112.677 0 86.2237 0ZM86.2237 11.9755C101.812 11.9755 114.982 22.0148 119.951 35.9264H52.496C57.4653 22.0148 70.6355 11.9755 86.2237 11.9755ZM86.2237 53.8897C82.9137 53.8897 80.236 51.212 80.236 47.9019C80.236 44.5919 82.9137 41.9142 86.2237 41.9142C89.5337 41.9142 92.2115 44.5919 92.2115 47.9019C92.2115 51.212 89.5337 53.8897 86.2237 53.8897ZM50.2973 47.9019C66.6586 47.9019 79.9083 63.6665 80.189 83.22C63.2547 80.32 50.2973 65.6429 50.2973 47.9019ZM92.2584 83.22C92.5391 63.6665 105.789 47.9019 122.15 47.9019C122.15 65.6429 109.193 80.32 92.2584 83.22Z" fill="white"/>
        <path d="M27.3041 168.615H28.2621L43.1117 114.965H55.5662V120.234L36.4055 182.028H19.1608L0 120.234V114.965H12.4545L27.3041 168.615ZM92.4507 114.965L113.049 176.758V182.028H100.594L96.2829 167.657H72.3319L68.0207 182.028H55.5662V176.758L76.1641 114.965H92.4507ZM83.8284 128.377L75.206 157.119H93.4088L84.7864 128.377H83.8284ZM170.531 142.269C170.531 154.244 159.513 156.161 159.513 156.161L172.447 176.758V182.028H159.992L147.059 157.119H133.646V182.028H121.192V114.965H154.723C164.304 114.965 170.531 121.192 170.531 129.814V142.269ZM133.646 125.503V146.58H151.37C155.202 146.58 158.076 143.706 158.076 140.353V131.731C158.076 128.377 155.202 125.503 151.37 125.503H133.646Z" fill="white"/>
    </g>
    <defs>
        <clipPath id="clip0_3022_7246">
            <rect width="172.447" height="182.027" fill="white"/>
        </clipPath>
    </defs>
</svg>
