<svg width="1100" height="838" viewBox="0 0 1100 838" fill="none" xmlns="http://www.w3.org/2000/svg">
    <path d="M927.612 602.583C927.044 671.437 910.075 736.095 880.662 792.442C880.662 792.442 696.841 790.926 552.891 789.739C407.854 788.543 213.295 786.939 213.295 786.939C185.704 730.798 170.01 664.046 170.568 596.341C172.391 375.239 343.339 197.397 552.391 199.121C761.443 200.845 929.435 381.481 927.612 602.583Z" fill="#77DDD3" fill-opacity="0.2078"/>
    <rect x="179" y="145.053" width="228.981" height="433.698" rx="20" transform="rotate(-14.1697 179 145.053)" fill="#77DDD3" fill-opacity="0.07"/>
    <path d="M401.405 57.8343L372.578 98.2763" stroke="black" stroke-width="2.30588" stroke-linecap="round" stroke-linejoin="round"/>
    <path d="M337.467 42.2648L336.353 90.5768" stroke="black" stroke-width="2.30588" stroke-linecap="round" stroke-linejoin="round"/>
    <path d="M436.66 104.391L392.465 125.229" stroke="black" stroke-width="2.30588" stroke-linecap="round" stroke-linejoin="round"/>
    <rect x="116.159" y="179.135" width="251.457" height="432.642" rx="15.625" transform="rotate(-13.7446 116.159 179.135)" fill="#A3E7EC" stroke="black" stroke-width="0.75"/>
    <path d="M380.848 201.341L383.959 200.58C384.496 200.449 385.037 200.777 385.168 201.314L397.838 253.113C397.97 253.65 397.641 254.191 397.105 254.322L393.993 255.084L380.848 201.341Z" fill="black"/>
    <path d="M127.635 245.32C127.504 244.784 127.832 244.243 128.369 244.112L131.481 243.35L141.12 282.761L138.009 283.523C137.472 283.654 136.931 283.325 136.8 282.789L127.635 245.32Z" fill="black"/>
    <path d="M139.466 293.689C139.334 293.152 139.663 292.611 140.199 292.48L143.311 291.719L152.951 331.13L149.839 331.891C149.303 332.022 148.761 331.693 148.63 331.157L139.466 293.689Z" fill="black"/>
    <rect x="130.584" y="186.612" width="226.987" height="411.261" rx="12" transform="rotate(-13.7446 130.584 186.612)" fill="white"/>
    <path d="M295.958 561.953L377.619 541.978" stroke="black" stroke-width="2" stroke-linecap="round"/>
    <path d="M316.679 392.925L244.899 407.587C243.806 387.547 226.79 313.94 226.79 313.94L279.169 303.24C285.964 301.851 297.653 305.931 298.825 311.487C307.605 353.181 316.667 392.93 316.667 392.93L316.679 392.925Z" fill="white" stroke="black" stroke-width="0.75" stroke-linejoin="round"/>
    <path d="M252.746 323.132C250.919 323.627 241.621 325.722 240.22 325.814C238.568 325.964 237.068 325.211 236.767 323.742C236.466 322.272 237.301 320.862 239.125 320.486C240.949 320.11 247.654 318.747 251.651 317.804C253.442 317.355 254.803 318.407 255.104 319.876C255.405 321.346 254.561 322.643 252.746 323.132Z" fill="black"/>
    <path d="M256.564 364.533C255.268 364.885 248.69 366.364 247.698 366.428C246.534 366.528 245.459 366.002 245.253 364.957C245.034 363.918 245.633 362.91 246.926 362.647C248.219 362.385 252.976 361.412 255.791 360.753C257.057 360.43 258.03 361.179 258.237 362.224C258.455 363.263 257.86 364.182 256.564 364.533Z" fill="black"/>
    <path d="M292.123 323.699C287.328 324.997 246.816 333.481 244.637 333.846C242.458 334.211 241.944 334.331 240.701 334.512C240.01 334.627 239.348 334.173 239.243 333.505C239.121 332.83 239.596 332.186 240.286 332.072C240.286 332.072 241.203 331.91 244.222 331.405C253.892 329.767 291.709 321.259 291.709 321.259C292.399 321.144 293.062 321.598 293.167 322.266C293.289 322.941 292.814 323.585 292.123 323.699Z" fill="#A3E7EC"/>
    <path d="M293.585 331.051C288.79 332.349 248.278 340.832 246.099 341.197C243.919 341.562 243.406 341.683 242.163 341.863C241.472 341.978 240.81 341.524 240.705 340.856C240.583 340.182 241.058 339.538 241.748 339.423C241.748 339.423 242.665 339.262 245.684 338.757C255.353 337.119 293.171 328.611 293.171 328.611C293.861 328.496 294.523 328.95 294.628 329.618C294.751 330.292 294.276 330.936 293.585 331.051Z" fill="#A3E7EC"/>
    <path d="M295.96 366.087C291.165 367.385 264.022 372.898 261.843 373.263C259.664 373.628 259.151 373.748 257.908 373.929C257.217 374.044 256.555 373.59 256.45 372.922C256.327 372.247 256.802 371.603 257.493 371.489C257.493 371.489 258.41 371.327 261.428 370.822C271.098 369.184 295.545 363.646 295.545 363.646C296.236 363.532 296.898 363.986 297.003 364.654C297.126 365.328 296.651 365.972 295.96 366.087Z" fill="#A3E7EC"/>
    <path d="M295.294 338.902C290.499 340.2 249.684 348.502 247.505 348.867C245.326 349.232 244.813 349.353 243.569 349.533C242.878 349.648 242.216 349.194 242.111 348.526C241.989 347.852 242.464 347.208 243.154 347.093C243.154 347.093 244.072 346.932 247.09 346.427C256.76 344.789 294.88 336.462 294.88 336.462C295.57 336.347 296.233 336.801 296.337 337.469C296.46 338.144 295.985 338.788 295.294 338.902Z" fill="#A3E7EC"/>
    <path d="M297.002 347.193C292.206 348.492 251.391 356.793 249.212 357.158C247.033 357.523 246.52 357.644 245.277 357.824C244.586 357.939 243.924 357.485 243.819 356.817C243.696 356.143 244.171 355.499 244.862 355.384C244.862 355.384 245.779 355.223 248.798 354.718C258.467 353.08 296.587 344.753 296.587 344.753C297.278 344.638 297.94 345.092 298.045 345.76C298.168 346.435 297.693 347.079 297.002 347.193Z" fill="#A3E7EC"/>
    <path d="M298.357 310.067C296.594 308.747 290.954 308.945 287.27 312.331C286.928 308.819 283.173 302.689 279.169 303.241C279.169 303.241 283.508 301.964 290.167 304.41C296.832 306.868 298.357 310.067 298.357 310.067Z" fill="black" stroke="black" stroke-width="0.75" stroke-linecap="round" stroke-linejoin="round"/>
    <path d="M252.354 377.215C252.162 377.304 251.959 377.369 251.756 377.404L250.463 377.666C249.759 377.816 249.035 377.669 248.43 377.276C247.825 376.884 247.411 376.271 247.272 375.561L247.007 374.264C246.712 372.807 247.649 371.365 249.103 371.072L250.396 370.81C251.85 370.517 253.292 371.458 253.587 372.915L253.852 374.212C254.003 374.917 253.858 375.642 253.467 376.247C253.182 376.671 252.811 377.004 252.354 377.215ZM248.968 372.231C248.284 372.548 247.888 373.301 248.05 374.06L248.314 375.356C248.496 376.252 249.374 376.825 250.267 376.645L251.561 376.383C252.455 376.203 253.025 375.325 252.844 374.429L252.58 373.133C252.399 372.237 251.521 371.664 250.627 371.844L249.333 372.106C249.202 372.137 249.088 372.175 248.968 372.231Z" fill="black"/>
    <path d="M301.543 373.929C296.748 375.227 265.791 381.511 263.618 381.888C261.438 382.253 260.925 382.373 259.682 382.554C258.991 382.669 258.329 382.215 258.224 381.547C258.102 380.872 258.577 380.228 259.267 380.114C259.267 380.114 260.184 379.952 263.203 379.447C272.873 377.809 301.128 371.489 301.128 371.489C301.819 371.374 302.481 371.828 302.586 372.496C302.709 373.17 302.234 373.814 301.543 373.929Z" fill="#A3E7EC"/>
    <path d="M254.129 385.841C253.937 385.93 253.733 385.994 253.531 386.03L252.238 386.292C251.534 386.442 250.81 386.295 250.205 385.902C249.6 385.509 249.186 384.897 249.046 384.186L248.782 382.89C248.631 382.185 248.776 381.459 249.167 380.855C249.558 380.25 250.168 379.835 250.878 379.697L252.171 379.435C253.625 379.142 255.067 380.084 255.362 381.541L255.627 382.837C255.778 383.542 255.632 384.268 255.241 384.872C254.957 385.297 254.585 385.629 254.129 385.841ZM250.743 380.856C250.467 380.984 250.236 381.179 250.068 381.446C249.827 381.807 249.742 382.255 249.825 382.685L250.089 383.981C250.27 384.877 251.148 385.451 252.042 385.271L253.336 385.009C254.23 384.829 254.8 383.951 254.619 383.055L254.355 381.759C254.173 380.863 253.295 380.289 252.401 380.469L251.108 380.731C250.977 380.763 250.863 380.801 250.743 380.856Z" fill="black"/>
    <path d="M283.884 386.664C279.088 387.962 267.777 390.243 265.598 390.608C263.418 390.973 262.905 391.094 261.662 391.275C260.971 391.389 260.309 390.935 260.204 390.267C260.082 389.593 260.557 388.949 261.247 388.834C261.247 388.834 262.164 388.673 265.183 388.168C274.853 386.53 283.469 384.224 283.469 384.224C284.16 384.109 284.822 384.563 284.927 385.231C285.05 385.905 284.575 386.549 283.884 386.664Z" fill="#A3E7EC"/>
    <path d="M256.109 394.561C255.929 394.644 255.726 394.709 255.517 394.762L254.223 395.024C252.769 395.317 251.327 394.376 251.032 392.918L250.768 391.622C250.616 390.917 250.762 390.192 251.153 389.587C251.544 388.982 252.154 388.568 252.863 388.43L254.157 388.167C254.86 388.017 255.585 388.165 256.189 388.557C256.794 388.95 257.209 389.563 257.348 390.273L257.612 391.569C257.872 392.824 257.214 394.049 256.097 394.566L256.109 394.561ZM255.298 393.722C256.18 393.548 256.763 392.664 256.582 391.769L256.317 390.472C256.136 389.577 255.258 389.003 254.364 389.183L253.071 389.445C252.177 389.625 251.606 390.503 251.787 391.399L252.052 392.695C252.233 393.591 253.111 394.164 254.005 393.985L255.298 393.722Z" fill="black"/>
    <g clip-path="url(#clip0_1305_585)">
        <path d="M345.184 401.777L345.448 359.828C345.459 358.217 344.01 356.993 342.447 357.297L334.108 358.918L343.313 395.804L345.148 401.637L345.175 401.779L345.184 401.777Z" fill="black"/>
        <path d="M279.174 414.605L345.175 401.779L333.271 356.07C332.91 354.695 331.536 353.863 330.179 354.214L316.329 357.71C313.197 358.5 310.552 360.615 309.058 363.517L307.827 365.92L271.392 373.64C269.581 374.027 268.472 375.877 268.97 377.692L279.167 414.615L279.174 414.605Z" fill="#A3E7EC"/>
        <path d="M279.158 414.565L344.88 401.793L333.031 356.281C332.671 354.914 331.299 354.091 329.948 354.431L316.155 357.908C313.03 358.697 310.4 360.8 308.922 363.691L307.697 366.083L271.419 373.773C269.615 374.158 268.513 375.999 269.01 377.806L279.166 414.563L279.158 414.565Z" stroke="black" stroke-width="0.75" stroke-linecap="round" stroke-linejoin="round"/>
    </g>
    <path d="M351.134 319.681L346.549 333.504" stroke="black" stroke-width="2.73873" stroke-linecap="round" stroke-linejoin="round"/>
    <path d="M330.537 320.356L335.128 334.176" stroke="black" stroke-width="2.73873" stroke-linecap="round" stroke-linejoin="round"/>
    <path d="M366.219 330.196L355.115 339.619" stroke="black" stroke-width="2.73873" stroke-linecap="round" stroke-linejoin="round"/>
    <path d="M704.668 784.095C716.721 780.567 724.202 775.494 729.282 758.954C734.362 742.414 728.959 633.556 723.209 598.291C717.46 563.027 707.023 527.454 701.943 519.383C696.863 511.311 678.783 498.939 678.783 498.939L629 475.672C629 475.672 596.258 497.968 553.332 500.902C489.256 505.29 473.693 468.504 473.693 468.504C473.693 468.504 425.803 480.965 400.034 497.836C374.288 514.707 358.101 585.28 349.489 614.655C340.876 644.031 331.316 719.389 335.588 738.422C345.24 779.133 356.693 794.968 381.515 793.248C392.137 792.63 404.121 789.102 421.531 780.765L651.467 780.457C653.868 786.191 686.241 789.433 704.691 784.029L704.668 784.095Z" fill="#7DDCE3"/>
    <path d="M620.271 261.727C620.271 261.727 640.406 253.964 651.235 262.366C663.219 271.673 679.521 298.557 675.711 342.245C672.109 383.442 689.912 415.111 676.82 444.62C669.361 461.425 646.571 473.929 635.326 481.714C620.917 491.705 590.23 455.448 590.23 455.448V259.521L620.294 261.727H620.271Z" fill="#BF8113"/>
    <path d="M836.445 670.276C821.829 666.24 815.133 651.949 816.656 638.452L878.655 612.693V636.93L850.346 662.777L836.445 670.276Z" fill="#EDB095"/>
    <path d="M770.66 650.736L675.711 693.454C675.711 693.454 683.885 786.654 704.69 784.096C729.905 781.008 799.892 696.52 799.892 696.52L770.683 650.736H770.66Z" fill="#7DDCE3"/>
    <path d="M631.401 470.82C631.401 470.82 616.739 461.227 600.021 458.338L611.982 476.51L631.401 470.82Z" fill="#1B8087"/>
    <path d="M497.637 452.471L528.44 447.024C528.44 447.024 516.409 464.777 509.436 463.873C499.299 454.5 497.637 452.493 497.637 452.493V452.471Z" fill="#088D73"/>
    <path d="M239 780.522H351.705" stroke="black" stroke-width="0.75" stroke-linecap="round" stroke-linejoin="round"/>
    <path d="M713.233 781.008H852.585" stroke="black" stroke-width="0.75" stroke-linecap="round" stroke-linejoin="round"/>
    <path d="M239 795.519H852.585" stroke="black" stroke-width="0.75" stroke-linecap="round" stroke-linejoin="round"/>
    <path d="M557.096 512.92C602.122 513.803 620.271 480.832 620.271 480.832C608.865 472.893 600.922 452.162 604.247 439.459C604.247 439.459 604.224 439.018 579.447 432.402C554.694 425.786 536.106 409.488 536.106 409.488L531.28 437.077C531.28 437.077 525.808 458.602 506.366 464.137C506.366 464.137 512.046 512.038 557.073 512.92H557.096Z" fill="#FFC5A9"/>
    <path d="M643.316 482.376C644.516 489.235 639.136 518.104 598.866 532.13C558.596 546.156 518.742 526.616 505.719 512.259C505.719 512.259 480.319 486.963 473.646 468.46C473.3 463.829 494.936 448.501 500.893 453.42C506.85 458.338 535.344 494.704 570.627 492.278C605.909 489.853 614.891 469.761 624.358 469.1C634.333 468.416 643.293 482.376 643.293 482.376H643.316Z" fill="#1B8087"/>
    <path d="M633.294 278.444C633.294 278.444 634.241 264.793 577.092 276.195C519.943 287.575 522.46 355.015 524.792 385.957C527.124 416.899 554.348 425.433 554.348 425.433C554.348 425.433 602.214 446.715 617.246 444.444C632.278 442.172 638.651 432.91 644.424 421.795C650.197 410.679 655.554 395.418 656.316 383.289C657.054 371.137 653.522 362.448 654.468 358.632C655.415 354.817 660.68 345.665 661.257 335.895C661.834 326.125 657.355 304.358 649.642 293.397C641.93 282.436 633.341 278.444 633.341 278.444H633.294Z" fill="#FFDDC5"/>
    <path d="M661.234 335.894C661.234 335.894 658.994 332.873 652.321 334.24C645.648 335.608 639.898 341.055 638.628 342.467C637.358 343.878 637.127 345.576 639.575 344.826C642.022 344.076 646.802 338.276 652.76 337.129C658.717 336.005 660.426 338.078 660.887 337.549C661.349 337.019 661.927 336.402 661.257 335.872L661.234 335.894Z" fill="#BF8113"/>
    <path d="M574.482 339.313C574.344 337.593 592.908 335.431 605.239 337.173C614.059 338.408 617.731 343.922 617.731 343.922C619.024 345.885 618.447 348.972 616.923 347.693C615.399 346.414 615.93 343.79 607.34 340.636C598.773 337.482 574.598 341.011 574.482 339.291V339.313Z" fill="#BF8113"/>
    <path d="M634.495 348.796C634.495 348.796 636.919 355.456 639.02 365.645C641.122 375.834 644.377 396.079 639.852 398.527C635.349 400.975 630.477 398.219 626.736 397.866C622.996 397.513 619.786 399.035 617.269 396.962C614.752 394.889 616.369 390.191 619.278 388.25C622.164 386.287 626.713 386.574 626.713 386.574" stroke="black" stroke-width="0.75" stroke-miterlimit="10" stroke-linecap="round"/>
    <path d="M611.774 358.5C612.282 357.948 612.513 349.612 604.108 346.635C595.703 343.679 582.749 346.502 582.587 347.142C582.426 347.781 596.049 345.488 602.884 348.178C610.989 351.288 611.266 359.029 611.774 358.478V358.5Z" fill="#031001"/>
    <path d="M639.899 357.529C639.345 357.573 639.483 352.853 643.178 349.523C647.38 345.73 655.023 346.877 655.092 347.627C655.162 348.377 648.627 346.833 644.332 350.383C640.868 353.228 640.453 357.507 639.899 357.529Z" fill="#031001"/>
    <path d="M800.447 696.211C800.447 696.211 838.039 678.634 837.415 670.65C837.415 670.65 829.356 667.783 821.967 653.779C814.555 639.775 816.772 632.673 816.772 632.673C806.959 630.556 770.66 650.735 770.66 650.735L770.083 651.044C770.984 669.569 780.912 684.72 799.893 696.519L800.47 696.211H800.447Z" fill="#1B8087"/>
    <path d="M610.596 362.227C610.596 362.227 607.11 363.925 598.312 363.197C589.515 362.469 579.447 351.795 579.447 351.795C579.447 351.795 596.234 350.119 602.515 352.545C608.795 354.971 610.596 362.227 610.596 362.227Z" fill="white"/>
    <path d="M610.042 363.131C611.335 363.043 612.466 355.632 604.154 351.707C595.864 347.781 577.992 350.273 576.584 351.817C575.175 353.361 591.431 352.302 598.543 354C607.132 355.853 608.726 363.219 610.019 363.131H610.042Z" fill="#031001"/>
    <path d="M605.702 355.941C605.702 355.941 605.425 364.41 597.666 363.197C589.908 361.984 592.217 352.302 592.217 352.302L605.702 355.963V355.941Z" fill="#031001"/>
    <path d="M640.452 361.763C640.452 361.763 643.616 353.868 648.903 351.971C654.214 350.075 655.969 351.133 655.969 351.133C655.969 351.133 652.275 361.609 647.079 362.623C641.884 363.638 640.452 361.763 640.452 361.763Z" fill="white"/>
    <path d="M640.175 361.168C640.037 359.382 643.108 353.714 647.588 351.089C650.358 349.479 653.73 349.369 655.461 350.538C658.001 352.236 653.152 350.759 648.049 354.089C642.946 357.419 640.337 363.814 640.152 361.168H640.175Z" fill="#031001"/>
    <path d="M650.958 351.442C650.958 351.442 652.598 360.661 647.818 362.403C644.331 363.66 642.53 361.146 642.114 360.22C641.699 359.294 641.953 358.059 641.953 358.059L650.958 351.442Z" fill="#031001"/>
    <path d="M515.67 598.049C515.67 598.049 517.171 605.591 513.985 618.427C511.791 627.226 458.498 731.475 421.53 780.853" stroke="#0B5243" stroke-width="0.75" stroke-linecap="round" stroke-linejoin="round"/>
    <path d="M348.081 714.714C351.313 700.489 368.262 675.215 392.715 663.24C392.715 663.24 427.835 597.101 438.619 585.236C449.379 573.349 457.691 569.93 457.691 569.93" stroke="#0B5243" stroke-width="0.75" stroke-linecap="round" stroke-linejoin="round"/>
    <path d="M421.508 780.831L651.444 780.522" stroke="black" stroke-width="0.75" stroke-linecap="round" stroke-linejoin="round"/>
    <path d="M607.364 411.782C614.545 411.296 621.911 409.709 624.544 409.51C627.176 409.312 630.062 411.539 630.062 411.539C630.062 411.539 632.579 409.576 634.265 409.929C636.505 410.216 638.306 414.605 638.513 414.097C638.513 414.097 634.403 420.691 628.469 421.596C618.979 422.742 609.073 413.083 607.364 411.76V411.782Z" fill="#C42C2C"/>
    <path d="M639.598 414.627C637.889 414.759 636.92 414.935 634.818 415.112C632.717 415.288 631.863 416.413 630.454 416.523C629.046 416.634 627.545 415.2 624.866 414.494C622.188 413.789 620.294 414.472 614.637 414.075C608.98 413.678 606.325 411.804 606.325 411.804" stroke="black" stroke-width="0.75" stroke-linecap="round" stroke-linejoin="round"/>
    <path d="M950.443 482.024L944.301 477.26C943.401 476.576 942.223 476.334 941.115 476.642L827.856 508.268C825.546 508.907 823.653 510.451 822.614 512.524L734.939 688.492C734.385 689.595 734.662 690.94 735.609 691.756L741.266 696.652L828.086 520.309C829.172 518.126 831.158 516.494 833.582 515.766L950.443 482.024Z" fill="#1B8087"/>
    <path d="M950.813 483.854L853.555 655.632C852.747 657.065 851.431 658.168 849.815 658.741L743.09 697.071C741.82 697.534 740.596 696.277 741.197 695.108L828.017 520.508C829.149 518.214 831.25 516.472 833.79 515.744L949.035 481.825C950.328 481.45 951.459 482.751 950.813 483.898V483.854Z" fill="#7DDCE3"/>
    <path d="M865.194 578.832C869.013 572.513 868.967 565.658 865.09 563.521C861.214 561.383 854.975 564.772 851.156 571.091C847.336 577.409 847.383 584.264 851.259 586.402C855.136 588.539 861.374 585.15 865.194 578.832Z" fill="#1B8087"/>
    <path d="M931.412 504.692C933.681 500.166 933.274 495.469 930.502 494.201C927.73 492.933 923.644 495.575 921.374 500.101C919.105 504.626 919.512 509.323 922.284 510.591C925.056 511.859 929.143 509.218 931.412 504.692Z" fill="#1B8087"/>
    <path d="M836.445 670.275C836.445 670.275 841.918 669.9 850.646 664.96C859.374 660.02 866.832 649.456 870.204 648.464C873.575 647.471 884.22 645.641 887.799 644.582C891.378 643.524 890.847 633.864 889.276 633.07C891.239 631.24 890.546 627.976 890.546 627.976C892.394 624.646 892.394 619.044 891.378 615.934C892.879 609.473 892.555 602.415 890.731 600.078C890.731 600.078 886.736 595.182 881.841 589.977C876.946 584.772 873.436 576.965 870.873 577.053C868.31 577.142 867.779 582.567 869.257 587.132C870.735 591.697 879.671 603.342 879.671 603.342C879.671 603.342 865.401 604.18 859.513 604.246C853.625 604.312 851.062 603.276 849.838 605.459C848.614 607.642 851.8 611.546 851.8 611.546C851.8 611.546 844.435 610.112 843.811 613.905C843.188 617.699 847.575 620.345 852.308 621.316C857.042 622.286 873.067 624.403 874.591 625.859C876.115 627.314 876.415 631.527 876.415 631.527C876.415 631.527 861.752 629.652 858.289 630.666C854.825 631.681 853.971 635.584 856.372 636.797C858.774 638.01 863.415 638.451 863.415 638.451L855.079 653.073C852.539 657.55 848.983 661.432 844.689 664.431L836.376 670.253L836.445 670.275Z" fill="#FFDDC5"/>
    <path d="M852.585 611.612C863.969 612.649 874.845 610.774 878.655 612.715C882.465 614.656 885.513 621.073 890.154 627.425" stroke="#EDB095" stroke-width="0.75" stroke-linecap="round" stroke-linejoin="round"/>
    <path d="M652.829 569.93C661.165 591.477 666.891 603.474 666.891 623.676C666.891 655.477 654.445 658.631 647.495 696.542C643.962 715.839 651.466 780.545 651.466 780.545" stroke="#0B5243" stroke-width="0.75" stroke-linecap="round" stroke-linejoin="round"/>
    <path d="M729.513 669.239C729.513 669.239 711.017 675.392 701.273 681.92C689.981 689.484 662.088 721.242 671.093 750.882" stroke="#0B5243" stroke-width="0.75" stroke-linecap="round" stroke-linejoin="round"/>
    <path d="M524.03 560.689L539.778 536.739C549.568 536.43 563.654 532.438 579.448 526.991C584.851 529.527 593.186 531.446 595.796 531.446C598.405 531.446 602.03 523.727 602.03 523.727C607.503 521.257 607.895 517.177 609.211 514.244C613.021 510.958 613.737 504.739 611.382 502.489C609.765 500.945 586.028 494.55 586.028 490.073C586.028 490.073 610.828 499.336 612.352 496.755C613.876 494.175 615.33 487.845 611.059 486.897C606.787 485.949 581.757 471.151 577.693 470.688C573.629 470.224 572.035 468.438 563.977 470.688C555.918 472.937 522.321 493.337 513.801 507.341L487.108 538.724C487.108 538.724 491.219 548.207 502.533 554.448C513.824 560.689 524.007 560.689 524.007 560.689H524.03Z" fill="#FFDDC5"/>
    <path d="M608.265 514.509C606.972 513.627 585.336 506.084 582.45 504.033" stroke="#EDB095" stroke-width="0.75" stroke-linecap="round" stroke-linejoin="round"/>
    <path d="M600.921 523.595C600.921 523.595 588.545 519.361 579.493 515.148" stroke="#EDB095" stroke-width="0.75" stroke-linecap="round" stroke-linejoin="round"/>
    <path d="M515.763 598.071C515.763 598.071 532.18 565.916 529.202 557.58C519.758 559.94 503.594 555.286 494.566 547.81C485.537 540.334 485.838 535.923 485.838 535.923C483.99 535.769 480.111 537.886 478.079 539.76C469.005 548.075 457.806 569.974 457.806 569.974C457.806 569.974 461.523 585.368 477.687 593.263C493.85 601.158 515.786 598.093 515.786 598.093L515.763 598.071Z" fill="#1B8087"/>
    <path d="M640.683 287.729C642.946 285.567 644.585 254.185 622.926 242.342C605.678 232.903 552.108 222.802 519.942 247.15C484.083 274.298 440.211 348.597 446.422 406.224C450.832 447.134 473.669 455.449 487.131 468.549C496.344 477.48 522.852 487.228 537.953 465.02C581.594 400.799 523.868 394.955 542.433 345.4C551.738 336.512 561.944 332.432 576.514 318.538C592.608 303.166 605.031 290.309 625.928 287.398C633.271 286.361 638.443 289.89 640.706 287.707L640.683 287.729Z" fill="#CE9013"/>
    <path d="M542.433 344.915C542.433 344.915 528.463 327.514 515.325 340.041C503.133 351.685 516.225 379.561 524.815 385.957C533.405 392.353 544.073 384.501 544.073 384.501L542.433 344.915Z" fill="#FFDDC5"/>
    <path d="M635.442 284.2C635.442 284.2 622.604 259.521 590.208 259.521" stroke="#BE8115" stroke-miterlimit="10" stroke-linecap="round"/>
    <path d="M630.016 284.2C587.437 264.528 544.05 278.025 513.778 329.543" stroke="#BE8115" stroke-miterlimit="10" stroke-linecap="round"/>
    <path d="M585.266 356.514L538.162 339.467" stroke="black" stroke-width="0.75" stroke-linecap="round" stroke-linejoin="round"/>
    <path d="M619.677 347.333L596.539 346.372C590.628 346.126 585.627 350.504 585.37 356.151L584.884 366.815C584.627 372.461 589.211 377.237 595.123 377.482L618.261 378.443C624.172 378.689 629.173 374.311 629.43 368.665L629.916 358.001C630.173 352.355 625.589 347.578 619.677 347.333Z" stroke="black" stroke-width="0.75" stroke-linecap="round" stroke-linejoin="round"/>
    <path d="M667.255 346.904L654.244 346.363C648.613 346.13 643.849 350.3 643.604 355.679L643.075 367.312C642.83 372.69 647.196 377.24 652.828 377.474L665.839 378.015C671.47 378.248 676.233 374.078 676.478 368.699L677.008 357.066C677.253 351.687 672.886 347.138 667.255 346.904Z" stroke="black" stroke-width="0.75" stroke-linecap="round" stroke-linejoin="round"/>
    <path d="M630.062 358.697C630.062 358.697 638.628 353.228 643.431 358.697" stroke="black" stroke-width="0.75" stroke-linecap="round" stroke-linejoin="round"/>
    <path d="M676.797 358.918L656.432 353.118" stroke="black" stroke-width="0.75" stroke-linecap="round" stroke-linejoin="round"/>
    <path d="M522.853 340.901C522.853 340.901 536.499 342.246 538.162 361.609C538.162 361.609 530.011 364.035 534.098 372.239" stroke="#EDB095" stroke-width="0.75" stroke-linecap="round" stroke-linejoin="round"/>
    <defs>
        <clipPath id="clip0_1305_585">
            <rect width="79" height="56" fill="white" transform="translate(265.156 360.567) rotate(-10.9974)"/>
        </clipPath>
    </defs>
</svg>
